<?xml version="1.0" encoding="utf-8"?>
<!-- Generator: Adobe Illustrator 23.0.3, SVG Export Plug-In . SVG Version: 6.00 Build 0)  -->
<svg version="1.1" id="Layer_1" xmlns="http://www.w3.org/2000/svg" xmlns:xlink="http://www.w3.org/1999/xlink" x="0px" y="0px"
	 viewBox="0 0 180.7 180.7" style="enable-background:new 0 0 180.7 180.7;" xml:space="preserve">
<style type="text/css">
	.st0{fill:url(#SVGID_1_);}
	.st1{fill:url(#SVGID_2_);}
	.st2{fill:url(#SVGID_3_);}
	.st3{fill:url(#SVGID_4_);}
	.st4{fill:url(#SVGID_5_);}
	.st5{fill:url(#SVGID_6_);}
	.st6{fill:url(#SVGID_7_);}
	.st7{fill:url(#SVGID_8_);}
	.st8{fill:url(#SVGID_9_);}
	.st9{fill:url(#SVGID_10_);}
	.st10{fill:url(#SVGID_11_);}
	.st11{fill:url(#SVGID_12_);}
	.st12{fill:url(#SVGID_13_);}
	.st13{fill:url(#SVGID_14_);}
	.st14{fill:url(#SVGID_15_);}
	.st15{fill:url(#SVGID_16_);}
	.st16{fill:url(#SVGID_17_);}
	.st17{fill:url(#SVGID_18_);}
	.st18{fill:url(#SVGID_19_);}
	.st19{fill:url(#SVGID_20_);}
	.st20{fill:url(#SVGID_21_);}
	.st21{fill:url(#SVGID_22_);}
	.st22{fill:url(#SVGID_23_);}
	.st23{fill:url(#SVGID_24_);}
	.st24{fill:url(#SVGID_25_);}
	.st25{fill:#66B7E6;}
	.st26{fill:#070707;}
	.st27{fill:#0D0C0C;}
	.st28{fill:#090909;}
	.st29{fill:#FAFAFA;}
	.st30{fill:#F7F8F7;}
	.st31{fill:#F1F1F2;}
	.st32{fill:#F4F3F3;}
	.st33{fill:#EFEEEE;}
	.st34{fill:#EAE9EA;}
	.st35{fill:#CDCED0;}
	.st36{fill:#E7E8E8;}
	.st37{fill:#CECDCD;}
	.st38{fill:#DEE6E6;}
	.st39{fill:#528A70;}
	.st40{fill:#060606;}
	.st41{fill:#FCFCFC;}
	.st42{fill:#FBFBFB;}
	.st43{fill:#FDFDFD;}
	.st44{fill:#F5F5F4;}
	.st45{fill:#EFEEED;}
	.st46{fill:#E7E6E6;}
	.st47{fill:#DBDADA;}
	.st48{fill:#080707;}
	.st49{fill:#F9F9F8;}
	.st50{fill:#080808;}
	.st51{fill:#FAFBFB;}
	.st52{fill:#EFEDEE;}
	.st53{fill:#33967C;}
	.st54{fill:#0A0A0A;}
	.st55{fill:#F6F6F6;}
	.st56{fill:#F6F5F5;}
	.st57{fill:#F7F7F6;}
	.st58{fill:#F7F6F6;}
	.st59{fill:#F3F3F3;}
	.st60{fill:#F5F4F4;}
	.st61{fill:#F5F5F5;}
	.st62{fill:#F4F4F3;}
	.st63{fill:#F2F1F1;}
	.st64{fill:#FCFCFB;}
	.st65{fill:#F9F9F9;}
	.st66{fill:#0B0C0C;}
	.st67{fill:#F2F0F0;}
	.st68{fill:#F5F6F4;}
	.st69{fill:#070606;}
	.st70{fill:#6AB5E5;}
	.st71{fill:#F7F8F9;}
	.st72{fill:#F9FAF9;}
	.st73{fill:#F1F3F3;}
	.st74{fill:#D0DEDC;}
	.st75{fill:#070708;}
	.st76{fill:#F9FAFA;}
	.st77{fill:#F8F9F9;}
	.st78{fill:#F8F9F8;}
	.st79{fill:#F2F2F2;}
	.st80{fill:#E6E6E6;}
	.st81{fill:#090A09;}
	.st82{fill:#0B0B0B;}
	.st83{fill:#090808;}
	.st84{fill:#F8FBFC;}
	.st85{fill:#C0C0C0;}
	.st86{fill:#F7F7F7;}
	.st87{fill:#F1F0F0;}
	.st88{fill:#090B0B;}
	.st89{fill:#221F1F;}
	.st90{fill:#232120;}
	.st91{fill:#171818;}
	.st92{fill:#19191A;}
	.st93{fill:#242221;}
	.st94{fill:#F8FAF9;}
	.st95{fill:#F6F7F7;}
	.st96{fill:#2B8F76;}
	.st97{fill:#373737;}
	.st98{fill:#161E1B;}
	.st99{fill:#1F2522;}
	.st100{fill:#FEFEFE;}
	.st101{fill:#0F0F0F;}
	.st102{fill:#62B6E6;}
	.st103{fill:#F1F2F2;}
	.st104{fill:#2C8F78;}
	.st105{fill:#0F1816;}
	.st106{fill:#0F1A16;}
	.st107{fill:#0E1412;}
	.st108{fill:#0C110F;}
	.st109{fill:#FBFBFA;}
	.st110{fill:#EEEDED;}
	.st111{fill:#131211;}
	.st112{fill:#28241F;}
	.st113{fill:#211F17;}
	.st114{fill:#1E1C18;}
	.st115{fill:#1D1C15;}
	.st116{fill:#FBFCFC;}
	.st117{fill:#191818;}
	.st118{fill:#161515;}
	.st119{fill:#141414;}
	.st120{fill:#0B1312;}
	.st121{fill:#0C1512;}
	.st122{fill:#0B1512;}
	.st123{fill:#FFFFFF;}
</style>
<g>
	<path class="st28" d="M144.5,91.1c0.3,29.5-25,54.2-55.3,53.4c-29.3-0.7-53.7-24.4-53-55.4c0.7-31.4,26.6-54.1,56.3-53.1
		C122.7,37.2,145.8,63.4,144.5,91.1z"/>
	<path class="st43" d="M84.6,135.5c-4.2-0.2-8.1-1.6-11.9-3.3c-3.3-1.4-3.8-2.7-2.6-5.9c1.6-4.6,1.6-4.6-2.1-7.3
		c-4.2-3.1-8.4-6.2-12.6-9.3c-1.3-1-2.5-2.1-4.3-1.5c-2.1,0.6-2.9-0.7-3.5-2.4c-1.9-5.5-3.3-11.1-2.9-17c0.4-6.3,1.9-12.4,4.5-18.3
		c1-2.4,2.6-3.3,5-3.2c2.2,0.1,4.3,0.1,6.5,0.2c2.6,0.2,4-0.8,4.6-3.4c1.1-4,2.5-7.9,3.7-11.9c0.7-2.3,2-3.6,4.3-4.4
		c5.1-1.8,10.2-3.6,15.8-3c3,4.5,1.2,9.5,1.6,14.2c0.2,2.3,0.1,4.7-0.2,7c-0.5,3.9-3.7,5.5-6.4,7.5c-11.6,8.8-11.6,8.8-7.2,22.7
		c0.9,2.8,1,6.2,4.5,7.5c9.2,1.2,9.3,1.3,9.3,10.7c0,5.2,0,10.5,0,15.7C90.5,134.5,88.9,136.5,84.6,135.5z"/>
	<path class="st25" d="M84.6,135.5c4.4-0.4,4.4-0.4,4.3-4.5c-0.1-7.3-0.2-14.7,0-22c0.1-2.5-0.9-3-3-3.3c-2.2-0.2-4.6,0.8-6.7-0.8
		c3.1-2.9,6.8-1.7,10.2-1.3c11.6,1.5,11.8,1.7,15.3-9.4c4.2-13.2,5.8-11.1-5.8-19.1c-3.4-2.3-6.8-4.7-9.9-7.5
		c0-7.6-0.1-15.2-0.1-22.8c3.8-0.2,7.5,0.1,11.3,0.8c4.2,0.8,6.8,2.8,7.8,7.1c0.9,3.9,2.5,7.5,3.5,11.4c0.7,2.6,2.1,3.5,4.6,3.4
		c3.4-0.1,6.9,0.1,10.3-0.2c2.4-0.2,3.5,0.7,4.6,2.8c6.3,12.5,6.3,25,1,37.7c-1.3,3-1.9,3.2-4.6,1c-1.7-1.4-3.3-1.8-4.8-0.3
		c-4.5,4.2-10,7.1-14.9,10.8c-2.3,1.7-3.1,3.4-1.5,5.9c0.5,0.8,0.8,1.6,1.1,2.5c1.2,3.5,1,4.1-2.4,5.2
		C98.4,135.5,91.6,136.5,84.6,135.5z"/>
	<path class="st66" d="M89.1,67.8c1.5-0.4,2.7,0.1,3.9,1.1c4.3,3.6,8.9,6.8,13.5,9.9c3.3,2.2,3.6,3.6,2.4,7.3
		c-1.7,5.3-3.5,10.6-5.1,15.9c-0.7,2.4-2,3.5-4.7,3.5c-4.2,0-8.3-0.1-12.4-0.7c-2.5-0.3-5,0-7.6,0.1c-1.2-0.6-2-1.6-2.2-2.9
		c-1.2-6-3.8-11.6-5.6-17.4c-0.7-2.1-0.2-3.1,1.5-4.5C78.2,76,84.4,72.8,89.1,67.8z"/>
</g>
</svg>
