<svg xmlns="http://www.w3.org/2000/svg" width="35.998" height="35.999" viewBox="0 0 35.998 35.999">
  <path id="Icon_awesome-pencil-alt" data-name="Icon awesome-pencil-alt" d="M35.009,9.991l-3.241,3.241a.845.845,0,0,1-1.2,0l-7.8-7.8a.845.845,0,0,1,0-1.2L26.009.991a3.382,3.382,0,0,1,4.774,0l4.226,4.226A3.37,3.37,0,0,1,35.009,9.991ZM19.983,7.017,1.519,25.481.028,34.024a1.69,1.69,0,0,0,1.955,1.955l8.543-1.5L28.99,16.017a.845.845,0,0,0,0-1.2l-7.8-7.8a.853.853,0,0,0-1.2,0ZM8.726,23.9a.98.98,0,0,1,0-1.392L19.554,11.679a.984.984,0,0,1,1.392,1.392L10.118,23.9a.98.98,0,0,1-1.392,0ZM6.188,29.813H9.563v2.552l-4.535.795L2.841,30.973l.795-4.535H6.188Z" transform="translate(-0.002 -0.005)"/>
</svg>
